<svg width="250" height="161" viewBox="0 0 250 161" fill="none" xmlns="http://www.w3.org/2000/svg">
<path d="M3.53906 67.67C3.31847 67.67 3.13297 67.5015 3.11392 67.2779L0.885969 40.5044C0.865915 40.2697 1.04038 40.0642 1.27601 40.0441C1.4966 40.0271 1.71619 40.1986 1.73624 40.4342L3.9642 67.2077C3.98425 67.4424 3.80978 67.6479 3.57415 67.668C3.56212 67.669 3.55109 67.67 3.53906 67.67Z" fill="#7141F8"/>
<path d="M4.86152 83.5713C4.64093 83.5713 4.45544 83.4029 4.43639 83.1793L3.76158 75.0746C3.74153 74.84 3.91599 74.6344 4.15162 74.6144C4.37722 74.5853 4.5928 74.7678 4.61185 75.0044L5.28666 83.1091C5.30671 83.3437 5.13225 83.5493 4.89662 83.5693C4.88559 83.5703 4.87355 83.5713 4.86152 83.5713Z" fill="#7141F8"/>
<path d="M230.434 159.755H23.407C18.1249 159.755 13.4434 155.434 13.0032 150.151L1.34405 10.0031C0.904881 4.72099 4.86647 0.398438 10.1496 0.398438H217.177C222.459 0.398438 227.141 4.71998 227.581 10.0031L239.241 150.151C239.68 155.433 235.717 159.755 230.434 159.755Z" fill="white"/>
<path d="M230.434 160.157H23.4068C17.9081 160.157 13.0621 155.684 12.6049 150.186L0.945732 10.0388C0.722135 7.36468 1.56539 4.84294 3.31707 2.93885C5.06073 1.04379 7.48722 0 10.1493 0H217.178C222.675 0 227.521 4.47395 227.979 9.97164L239.639 150.118C239.862 152.792 239.019 155.313 237.267 157.216C235.523 159.112 233.096 160.157 230.434 160.157ZM10.1493 0.801137C7.71382 0.801137 5.4969 1.75268 3.90665 3.4813C2.30737 5.21795 1.53932 7.52311 1.74286 9.97265L13.402 150.119C13.8262 155.213 18.3142 159.356 23.4078 159.356H230.435C232.872 159.356 235.089 158.404 236.68 156.676C238.278 154.938 239.046 152.634 238.843 150.185L227.182 10.0388C226.758 4.94521 222.271 0.801137 217.179 0.801137H10.1493Z" fill="#7141F8"/>
<path d="M217.177 0.402344H10.1498C4.86771 0.402344 0.905117 4.7239 1.34429 10.007H227.58C227.141 4.7239 222.459 0.402344 217.177 0.402344Z" fill="#7141F8"/>
<path d="M14.9959 5.20434C15.0912 6.3484 14.2409 7.27589 13.0969 7.27589C11.9528 7.27589 10.9481 6.3484 10.8529 5.20434C10.7576 4.06029 11.6079 3.13281 12.7519 3.13281C13.896 3.13281 14.9007 4.06029 14.9959 5.20434Z" fill="white"/>
<path d="M23.4184 5.20434C23.5137 6.3484 22.6634 7.27589 21.5193 7.27589C20.3753 7.27589 19.3716 6.3484 19.2763 5.20434C19.1811 4.06029 20.0313 3.13281 21.1754 3.13281C22.3195 3.13281 23.3231 4.06029 23.4184 5.20434Z" fill="white"/>
<path d="M31.8409 5.20434C31.9361 6.3484 31.0859 7.27589 29.9418 7.27589C28.7977 7.27589 27.7931 6.3484 27.6988 5.20434C27.6036 4.06029 28.4538 3.13281 29.5979 3.13281C30.7419 3.13281 31.7456 4.06029 31.8409 5.20434Z" fill="white"/>
<path d="M212.469 141.392H38.3182C34.119 141.392 30.398 137.957 30.0481 133.758L21.9153 36.0075C21.5664 31.8082 24.7158 28.373 28.915 28.373H203.065C207.264 28.373 210.985 31.8082 211.335 36.0075L219.467 133.758C219.817 137.957 216.668 141.392 212.469 141.392Z" fill="#F0F0F0"/>
<path opacity="0.1" d="M158.61 45.4876L104.658 110.444C97.2575 119.355 101.946 132.938 113.267 135.387L200.774 154.312C212.858 156.926 222.956 144.977 218.364 133.498L184.81 49.6156C180.465 38.7536 166.085 36.4885 158.61 45.4876Z" fill="#263238"/>
<path opacity="0.1" d="M38.5276 54.5958L19.7364 105.197C17.2286 111.949 22.6582 118.996 29.8263 118.293L84.702 112.912C92.3966 112.157 96.1927 103.174 91.3708 97.1295L55.2874 51.9086C50.5567 45.9817 41.1676 47.4868 38.5276 54.5958Z" fill="#263238"/>
<path d="M177.221 29.1325L126.786 102.365C119.915 112.341 126.001 126.054 138.008 127.651L230.72 139.99C243.589 141.702 253.157 128.359 247.407 116.72L205.13 31.1479C199.645 20.0463 184.246 18.9333 177.221 29.1325Z" fill="#7141F8"/>
<path d="M140.209 121.086C136.837 120.638 133.906 118.511 132.369 115.4C130.831 112.288 131.008 108.84 132.842 106.176L183.405 32.7591C185.239 30.097 188.347 28.7745 191.718 29.2227C195.09 29.6719 198.021 31.7976 199.558 34.9089L241.941 120.696C243.48 123.809 243.302 127.256 241.467 129.92C239.633 132.582 236.525 133.904 233.154 133.456L140.209 121.086Z" fill="white"/>
<path d="M187.413 55.1773L193.317 55.9634C197.114 56.4688 200.037 59.923 199.844 63.678L199.448 71.3806C199.434 71.6634 199.401 71.9431 199.351 72.2179L195.15 95.4299C194.545 98.7749 191.488 100.939 188.021 100.477C184.546 100.015 181.749 97.0613 181.503 93.594L179.799 69.6059C179.779 69.3281 179.777 69.0504 179.791 68.7747L180.187 61.063C180.381 57.307 183.615 54.672 187.413 55.1773ZM186.941 106.876L188.552 107.09C191.949 107.542 194.562 110.632 194.389 113.991C194.217 117.35 191.323 119.706 187.926 119.255L186.316 119.04C182.919 118.588 180.306 115.499 180.478 112.14C180.651 108.781 183.545 106.423 186.941 106.876Z" fill="#7141F8"/>
<path d="M57.9234 40.3277L44.0754 92.8421C42.2415 99.7956 48.3107 106.273 55.3686 104.895L109.084 94.4142C116.632 92.9413 119.582 83.7177 114.29 78.1377L74.4235 36.1044C69.1675 30.5636 59.8706 32.9429 57.9234 40.3277Z" fill="#7141F8"/>
<path d="M55.2663 100.642C53.3131 101.023 51.2806 100.338 49.8318 98.8098C48.3819 97.2807 47.8164 95.2282 48.3207 93.3181L62.2038 40.6714C62.7072 38.7623 64.1741 37.3946 66.1283 37.0136C68.0815 36.6326 70.114 37.3174 71.5628 38.8455L111.531 80.9852C112.981 82.5142 113.546 84.5667 113.042 86.4768C112.538 88.3859 111.071 89.7536 109.118 90.1346L55.2663 100.642Z" fill="white"/>
<path d="M68.7323 53.0334L72.1535 52.3657C74.3533 51.9365 76.6364 53.4014 77.2511 55.6364L78.5134 60.2217C78.5596 60.3901 78.5957 60.5596 78.6207 60.73L80.7574 75.1245C81.0653 77.199 79.7889 79.049 77.7805 79.441C75.7671 79.8341 73.6505 78.6379 72.8473 76.6556L67.2905 62.9339C67.2263 62.7745 67.1711 62.6131 67.126 62.4486L65.8626 57.8573C65.248 55.6234 66.5324 53.4626 68.7323 53.0334ZM78.4132 83.3966L79.3467 83.2141C81.3149 82.8301 83.3564 84.1406 83.9069 86.1399C84.4573 88.1403 83.3083 90.0724 81.34 90.4565L80.4075 90.639C78.4393 91.023 76.3978 89.7125 75.8473 87.7131C75.2958 85.7128 76.4449 83.7806 78.4132 83.3966Z" fill="#7141F8"/>
</svg>
