<svg width="22" height="22" viewBox="0 0 22 22" fill="none" xmlns="http://www.w3.org/2000/svg">
<path fill-rule="evenodd" clip-rule="evenodd" d="M4 0C2.93913 0 1.92172 0.421427 1.17157 1.17157C0.421427 1.92172 0 2.93913 0 4V18C0 19.0609 0.421427 20.0783 1.17157 20.8284C1.92172 21.5786 2.93913 22 4 22H18C19.0609 22 20.0783 21.5786 20.8284 20.8284C21.5786 20.0783 22 19.0609 22 18V4C22 2.93913 21.5786 1.92172 20.8284 1.17157C20.0783 0.421427 19.0609 0 18 0H4ZM3.666 3.5C3.55653 3.54068 3.45808 3.60637 3.37848 3.69182C3.29887 3.77727 3.24033 3.88013 3.2075 3.99221C3.17468 4.10428 3.16848 4.22248 3.1894 4.33737C3.21032 4.45227 3.25778 4.56069 3.328 4.654L8.942 12.104L3.027 18.449L2.983 18.5H5.03L9.86 13.321L13.572 18.249C13.6581 18.3631 13.775 18.4502 13.909 18.5H18.331C18.4403 18.4591 18.5386 18.3933 18.6179 18.3077C18.6973 18.2222 18.7556 18.1193 18.7883 18.0072C18.8209 17.8952 18.8269 17.7771 18.8059 17.6623C18.7848 17.5475 18.7373 17.4392 18.667 17.346L13.053 9.896L19.017 3.5H16.967L12.137 8.68L8.423 3.752C8.33702 3.63756 8.22008 3.55012 8.086 3.5H3.666ZM14.546 17.048L5.431 4.952H7.45L16.564 17.047L14.546 17.048Z" fill="white"/>
</svg>
